<svg id="Capa_1" enable-background="new 0 0 512 512" height="512" viewBox="0 0 512 512" width="512" xmlns="http://www.w3.org/2000/svg"><g><path d="m482.52 256-79.96 219.45h-293.12l-79.96-219.45 79.96-219.45h293.12z" fill="#f5fbff"/><path d="m482.52 256-79.96 219.45h-146.56v-438.9h146.56z" fill="#cbe1fa"/><path d="m413.06 21.55h-314.12l-85.42 234.45 85.42 234.45h314.12l85.42-234.45zm-21 438.9h-272.12l-74.49-204.45 74.49-204.45h272.12l74.49 204.45z" fill="#1e608b"/><path d="m498.48 256-85.42 234.45h-157.06v-30h136.06l74.49-204.45-74.49-204.45h-136.06v-30h157.06z" fill="#1e3f6b"/><path d="m29.485 109.794h73.103v73.103h-73.103z" fill="#50c5ff"/><path d="m409.412 109.794h73.103v73.103h-73.103z" fill="#4889ff"/><path d="m219.45 0h73.1v73.1h-73.1z" fill="#50c5ff"/><path d="m219.45 438.9h73.1v73.1h-73.1z" fill="#50c5ff"/><path d="m256 0h36.55v73.1h-36.55z" fill="#4889ff"/><path d="m256 438.9h36.55v73.1h-36.55z" fill="#4889ff"/><path d="m29.485 329.103h73.103v73.103h-73.103z" fill="#50c5ff"/><path d="m409.412 329.103h73.103v73.103h-73.103z" fill="#4889ff"/></g></svg>