<svg height="512pt" viewBox="0 0 512 512" width="512pt" xmlns="http://www.w3.org/2000/svg"><path d="m256 7.5c-137.242188 0-248.5 111.257812-248.5 248.5 0 91.972656 49.96875 172.265625 124.234375 215.238281l124.265625-215.238281zm0 0" fill="#aaefb8"/><path d="m213.199219 281.976562h-162.898438c-8.003906 8-12.492187 12.488282-20.496093 20.492188v56.550781c21.515624 47.160157 57.339843 86.417969 101.929687 112.21875l99.09375-171.636719zm0 0" fill="#fff"/><path d="m256 7.5v248.5h248.5c0-137.242188-111.257812-248.5-248.5-248.5zm0 0" fill="#62d2f5"/><path d="m131.734375 471.238281c36.554687 21.148438 78.996094 33.261719 124.265625 33.261719 137.242188 0 248.5-111.257812 248.5-248.5h-248.5zm0 0" fill="#feef81"/><path d="m423.597656 412.871094h-167.355468c-7.132813 7.132812-11.132813 11.132812-18.265626 18.265625v72.710937c5.953126.429688 11.960938.652344 18.023438.652344 71.351562 0 135.664062-30.078125 180.988281-78.238281zm0 0" fill="#f072ae"/><path d="m414.617188 382.023438c-17.035157 0-30.847657-13.8125-30.847657-30.847657v11.375l-27.535156 27.539063h-32.628906c-10.753907-10.753906-16.78125-16.785156-27.535157-27.539063v-11.375c0 17.035157-13.8125 30.847657-30.847656 30.847657 0 17.035156 13.808594 30.847656 30.847656 30.847656h87.699219v-.003906.003906c17.035157 0 30.847657-13.8125 30.847657-30.847656zm0 0" fill="#f072ae"/><path d="m383.769531 325.824219v36.726562c-10.753906 10.753907-16.785156 16.785157-27.539062 27.539063h-32.625c-10.753907-10.753906-16.785157-16.785156-27.539063-27.539063v-36.726562c0-24.21875 19.632813-43.847657 43.851563-43.847657s43.851562 19.628907 43.851562 43.847657zm0 0" fill="#d69660"/><path d="m344.726562 468.746094h-9.617187l-32.8125-55.875h75.246094zm0 0" fill="#fff"/><path d="m175.601562 194.929688v36.726562c-10.753906 10.753906-16.785156 16.78125-27.539062 27.535156h-32.625c-10.753906-10.753906-16.785156-16.78125-27.539062-27.535156v-36.726562c0-24.21875 19.632812-43.851563 43.851562-43.851563s43.851562 19.632813 43.851562 43.851563zm0 0" fill="#f7e5c6"/><path d="m137.058594 343.667969h-10.617188l-36.230468-61.691407h83.078124zm0 0" fill="#fff"/><path d="m356.234375 390.089844h-32.628906c-5.632813-5.636719-9.972657-9.972656-14.371094-14.371094v37.152344h61.367187v-37.152344c-4.398437 4.398438-8.734374 8.734375-14.367187 14.371094zm0 0" fill="#9e5e28"/><path d="m148.0625 259.191406h-32.625c-5.632812-5.632812-9.972656-9.972656-14.371094-14.371094v37.15625h61.367188v-37.15625c-4.398438 4.402344-8.738282 8.738282-14.371094 14.371094zm0 0" fill="#f0b582"/><path d="m317.507812 332.476562c21.933594 0 39.710938-17.78125 39.710938-39.714843 0-2.574219-.253906-5.09375-.722656-7.535157-5.113282-2.089843-10.710938-3.25-16.578125-3.25-24.21875 0-43.847657 19.628907-43.847657 43.847657v.363281c6.183594 3.972656 13.539063 6.289062 21.4375 6.289062zm0 0" fill="#f072ae"/><path d="m386.089844 98.359375v32.769531c-9.597656 9.59375-14.976563 14.972656-24.570313 24.570313h-29.113281c-9.597656-9.597657-14.976562-14.976563-24.570312-24.570313v-32.769531c0-21.609375 17.515624-39.128906 39.125-39.128906 21.609374 0 39.128906 17.519531 39.128906 39.128906zm0 0" fill="#f7e5c6"/><path d="m361.519531 155.699219h-29.113281c-5.027344-5.027344-8.898438-8.898438-12.824219-12.824219v37.988281h54.757813v-37.988281c-3.925782 3.925781-7.792969 7.796875-12.820313 12.824219zm0 0" fill="#f0b582"/><path d="m437.925781 256v-56.847656l-18.285156-18.289063h-145.355469c-7.140625 7.144531-11.144531 11.148438-18.289062 18.289063v56.847656zm0 0" fill="#f072ae"/><path d="m27.5 256c0-130.511719 100.609375-237.523438 228.5-247.707031v-.792969c-137.242188 0-248.5 111.257812-248.5 248.5 0 91.972656 49.96875 172.265625 124.234375 215.238281l5.308594-9.199219c-66.089844-44.660156-109.542969-120.273437-109.542969-206.039062zm0 0" fill="#00dba8"/><path d="m49.804688 359.019531v-56.550781l20.496093-20.492188h-20l-20.496093 20.492188v56.550781c21.515624 47.160157 57.339843 86.417969 101.929687 112.21875l5.308594-9.199219c-37.769531-25.523437-68.140625-61.15625-87.238281-103.019531zm0 0" fill="#cbf0fc"/><path d="m256 7.5v248.5h20v-247.707031c-6.597656-.523438-13.265625-.792969-20-.792969zm0 0" fill="#00a7e8"/><path d="m151.734375 471.238281 124.265625-215.238281h-20l-124.265625 215.238281c36.554687 21.148438 78.996094 33.261719 124.265625 33.261719 3.351562 0 6.6875-.066406 10.003906-.199219-41.519531-1.640625-80.417968-13.476562-114.269531-33.0625zm0 0" fill="#f5bd74"/><path d="m257.976562 503.847656v-72.710937c7.132813-7.132813 11.132813-11.132813 18.265626-18.265625h-20c-7.132813 7.132812-11.132813 11.132812-18.265626 18.265625v72.710937c5.953126.429688 11.960938.652344 18.023438.652344 3.367188 0 6.71875-.066406 10.054688-.199219-2.703126-.109375-5.398438-.261719-8.078126-.453125zm0 0" fill="#df3f96"/><path d="m285.222656 382.023438c8.382813 0 15.984375-3.347657 21.546875-8.773438-3.234375-3.230469-6.628906-6.628906-10.699219-10.699219v-11.378906c0 17.039063-13.8125 30.847656-30.847656 30.847656 0 17.039063 13.808594 30.847657 30.847656 30.847657h20c-17.039062.003906-30.847656-13.808594-30.847656-30.84375zm0 0" fill="#df3f96"/><path d="m316.070312 362.550781v-36.726562c0-20.777344 14.449219-38.179688 33.847657-42.703125-3.210938-.75-6.558594-1.148438-10-1.148438-24.21875 0-43.847657 19.632813-43.847657 43.851563v36.726562l27.535157 27.535157h20c-10.753907-10.75-16.78125-16.78125-27.535157-27.535157zm0 0" fill="#9e5e28"/><path d="m322.296875 412.871094h-20l32.8125 55.875h9.617187l5.191407-8.839844zm0 0" fill="#cbf0fc"/><path d="m107.898438 231.65625v-36.726562c0-20.777344 14.453124-38.179688 33.851562-42.703126-3.210938-.75-6.558594-1.148437-10-1.148437-24.21875 0-43.851562 19.632813-43.851562 43.851563v36.726562c10.753906 10.753906 16.785156 16.78125 27.539062 27.535156h20c-10.753906-10.753906-16.785156-16.78125-27.539062-27.535156zm0 0" fill="#f0b582"/><path d="m110.210938 281.976562h-20l36.230468 61.691407h10.617188l4.691406-7.988281zm0 0" fill="#cbf0fc"/><path d="m316.070312 326.1875v-.363281c0-20.773438 14.441407-38.171875 33.835938-42.699219-3.207031-.75-6.550781-1.148438-9.988281-1.148438-24.21875 0-43.847657 19.628907-43.847657 43.847657v.363281c6.183594 3.972656 13.539063 6.289062 21.4375 6.289062 3.457032 0 6.808594-.441406 10.007813-1.273437-4.113281-1.066406-7.964844-2.777344-11.445313-5.015625zm0 0" fill="#df3f96"/><path d="m327.835938 131.128906v-32.769531c0-18.15625 12.359374-33.417969 29.125-37.839844-3.191407-.839843-6.542969-1.289062-10-1.289062-21.609376 0-39.125 17.519531-39.125 39.128906v32.769531c9.59375 9.59375 14.972656 14.972656 24.570312 24.570313h20c-9.597656-9.59375-14.976562-14.976563-24.570312-24.570313zm0 0" fill="#f0b582"/><path d="m294.285156 180.863281h-20c-7.140625 7.144531-11.148437 11.148438-18.289062 18.289063v56.847656h20v-56.847656c7.140625-7.140625 11.144531-11.144532 18.289062-18.289063zm0 0" fill="#df3f96"/><path d="m230.476562 428.03125v55.75h15v-49.539062l13.871094-13.871094h38.65625l32.8125 55.875h18.203125l32.816407-55.875h40.296874v-15h-7.933593c5.136719-6.667969 7.917969-14.792969 7.917969-23.347656v-7.5h-7.5c-12.875 0-23.347657-10.476563-23.347657-23.351563v-25.347656c0-28.3125-23.035156-51.351563-51.351562-51.351563-28.316407 0-51.351563 23.035156-51.351563 51.351563v25.347656c0 12.875-10.472656 23.347656-23.347656 23.347656h-7.5v7.5c0 8.78125 2.964844 16.878907 7.945312 23.347657h-12.53125zm109.957032 33.214844h-1.03125l-24.003906-40.875h49.042968zm-23.699219-67.421875 3.765625 3.765625h38.839844l3.765625-3.765625v11.546875h-46.371094zm89.445313-5.238281c-2.84375 9.6875-11.8125 16.785156-22.410157 16.785156h-5.664062v-26.546875l5.339843-5.339844c5.390626 7.511719 13.425782 13.003906 22.734376 15.101563zm-29.910157-62.761719v33.621093l-23.144531 23.144532h-26.414062l-23.140626-23.148438v-21.566406c28.109376 8.691406 57.003907-10.261719 60.75-38.96875 7.335938 6.65625 11.949219 16.257812 11.949219 26.917969zm-26.609375-35.023438c1.515625 24.472657-23.902344 41.484375-45.878906 31.101563 2.378906-22.101563 24.171875-37.144532 45.878906-31.101563zm-53.265625 82.683594 5.339844 5.339844v26.546875h-5.664063c-10.597656 0-19.566406-7.097656-22.410156-16.785156 9.308594-2.097657 17.34375-7.589844 22.734375-15.101563zm0 0"/><path d="m47.191406 274.476562-20.644531 20.644532 10.605469 10.605468 16.253906-16.253906h32.511719l36.230469 61.691406h19.203124l36.230469-61.691406h35.617188v-15h-43.265625v-26.546875l13.167968-13.164062v-39.832031c0-28.3125-23.039062-51.351563-51.351562-51.351563-28.316406 0-51.351562 23.035156-51.351562 51.351563v39.832031l13.167968 13.167969v26.546874zm85.574219 61.691407h-2.03125l-27.421875-46.691407h56.875zm-1.015625-177.589844c20.042969 0 36.351562 16.308594 36.351562 36.351563v33.621093l-23.144531 23.140625h-26.414062l-23.144531-23.144531v-33.617187c0-20.042969 16.308593-36.351563 36.351562-36.351563zm-23.183594 104.351563 3.761719 3.761718h38.84375l3.761719-3.761718v11.546874h-46.367188zm0 0"/><path d="m445.425781 236v-39.953125l-22.679687-22.683594h-40.90625v-27.382812l11.75-11.746094v-35.875c0-25.710937-20.917969-46.628906-46.628906-46.628906-25.710938 0-46.625 20.917969-46.625 46.628906v35.875l11.746093 11.746094v27.382812h-36.082031v15h140.53125l13.894531 13.894531v33.742188zm-130.089843-137.640625c0-17.441406 14.1875-31.628906 31.625-31.628906 17.441406 0 31.628906 14.1875 31.628906 31.628906v29.660156l-20.179688 20.179688h-22.898437l-20.175781-20.179688zm11.746093 75.003906v-12.382812l2.21875 2.21875h35.324219l2.195312-2.195313.019532-.023437v12.382812zm0 0"/><path d="m413.507812 248.5v-41.4375h-15v41.4375h-103.09375v-41.4375h-15v41.4375h-16.914062v-233.382812c121.511719 3.804687 223.023438 99.714843 232.722656 221.480468l14.953125-1.191406c-10.46875-131.417969-120.386719-235.40625-255.175781-235.40625h-7.5v253.992188l-119.449219 206.890624c-70.542969-43.816406-114.050781-121.625-114.050781-204.882812 0-124.804688 97.335938-230.324219 221.597656-240.222656l-1.191406-14.953125c-131.417969 10.46875-235.40625 120.386719-235.40625 255.175781 0 94.585938 51.363281 177.398438 127.976562 221.730469l6.496094 3.757812 125.859375-217.988281h236.554688c-3.972657 129.4375-110.503907 233.5-240.886719 233.5-36.152344 0-70.921875-7.8125-103.332031-23.222656l-6.4375 13.546875c34.4375 16.375 71.371093 24.675781 109.769531 24.675781 141.484375 0 256-114.496094 256-256v-7.5zm0 0"/><path d="m385.914062 238.496094h-30v-15h30zm-40 0h-15v-15h15zm-25 0h-15v-15h15zm0 0" fill="#fff"/></svg>